<?xml version="1.0" encoding="utf-8"?>
<!-- Generator: Adobe Illustrator 22.0.1, SVG Export Plug-In . SVG Version: 6.00 Build 0)  -->
<svg version="1.1" id="Layer_1" xmlns="http://www.w3.org/2000/svg" xmlns:xlink="http://www.w3.org/1999/xlink" x="0px" y="0px"
	 viewBox="0 0 210 60" style="enable-background:new 0 0 210 60;" xml:space="preserve">
<style type="text/css">
	.st0{fill:#FFFFFF;}
</style>
<g id="logo01">
	<g>
		<g>
			<path class="st0" d="M19,48c2.2-1.3,8.1-3.7,8.4-7.8c1.7,7-3.1,8.6-4.7,10.2C21.2,52,20.4,55,24,55.3c3.6,0.3,7.3-1.5,9.1-7.3
				c1.8-5.8,5.8-8.5,9.6-9.1c5-0.8,7.4-2.9,8.3-6.1c-0.5,7.9-3.7,9.4-7.3,10.9c-2.7,1.1-4.7,5.6-0.6,8.5c0,0,3.2,2.1,6.8-4.7
				c2.4-4.7,6.8,0.5,9.4-6.6c0.5,7.4-3.5,5.4-4.8,8.9c-0.8,2.1,2.3,4.9,5.7,6.4c5.3-6,8.3-13.9,7.7-22.5
				C66.9,16.7,52.2,3.7,35.1,4.8S5,20.5,6.1,37.7c0.4,7.2,3.3,13.6,7.7,18.6C14.9,52.9,16.4,49.6,19,48z"/>
		</g>
	</g>
	<g>
		<path class="st0" d="M80.3,33.7c0,0.1,0,0.1,0,0.2c0,0.1,0,0.1,0,0.1c0,0.3,0.1,0.5,0.4,0.6c0.2,0.2,0.5,0.3,0.9,0.4
			c0.3,0.1,0.7,0.2,1,0.2c0.3,0,0.6,0.1,0.7,0.1c0.6,0,1-0.1,1.2-0.4c0.2-0.3,0.3-0.7,0.3-1.2v-6.5c0-0.1,0-0.2-0.1-0.2
			c-0.1-0.1-0.2-0.1-0.5-0.1v-0.3h4.4v0.3c-0.3,0-0.4,0.1-0.5,0.1s-0.1,0.1-0.1,0.2v7.1c0,0.8-0.1,1.4-0.4,1.8
			c-0.2,0.5-0.6,0.8-1,1.1c-0.4,0.3-0.9,0.4-1.5,0.5c-0.6,0.1-1.2,0.1-1.9,0.1c-0.5,0-1,0-1.4-0.1c-0.4-0.1-0.8-0.1-1.1-0.2
			c-0.3-0.1-0.6-0.2-0.8-0.2c-0.2-0.1-0.3-0.1-0.4-0.1c-0.1,0-0.2,0-0.2,0.1c0,0-0.1,0.1-0.2,0.2l-0.3-0.2l1.4-3.6L80.3,33.7z"/>
		<path class="st0" d="M104.6,27.1c0-0.1,0-0.2-0.1-0.2c-0.1-0.1-0.2-0.1-0.5-0.1v-0.3h4.4v0.3c-0.3,0-0.4,0.1-0.5,0.1
			s-0.1,0.1-0.1,0.2v5.7c0,0.9-0.2,1.7-0.5,2.4c-0.3,0.6-0.7,1.1-1.3,1.5c-0.5,0.4-1.2,0.6-1.9,0.8c-0.7,0.1-1.5,0.2-2.3,0.2
			s-1.6-0.1-2.3-0.2c-0.7-0.1-1.3-0.4-1.9-0.8c-0.5-0.4-0.9-0.9-1.3-1.5c-0.3-0.6-0.5-1.4-0.5-2.4v-5.7c0-0.1,0-0.2-0.1-0.2
			c-0.1-0.1-0.2-0.1-0.5-0.1v-0.3h4.4v0.3c-0.3,0-0.4,0.1-0.5,0.1c-0.1,0.1-0.1,0.1-0.1,0.2v5.7c0,0.8,0.2,1.4,0.7,1.8
			c0.5,0.4,1.1,0.5,2,0.5s1.5-0.2,2-0.5c0.5-0.4,0.7-0.9,0.7-1.8V27.1z"/>
		<path class="st0" d="M115.7,27.1c0-0.1,0-0.2-0.1-0.2c-0.1-0.1-0.2-0.1-0.5-0.1v-0.3h5.1v0.3c-0.2,0-0.4,0-0.5,0.1
			c-0.1,0-0.1,0.1-0.1,0.2c0,0,0.1,0.2,0.3,0.4c0.2,0.2,0.4,0.5,0.7,0.8c0.3,0.3,0.6,0.7,1,1.1c0.4,0.4,0.8,0.8,1.1,1.3
			c0.4,0.4,0.8,0.8,1.1,1.2c0.4,0.4,0.7,0.7,0.9,1v-5.7c0-0.2-0.1-0.4-0.4-0.4v-0.3h3.9v0.3c-0.3,0-0.4,0.1-0.5,0.1
			s-0.1,0.1-0.1,0.2V37c0,0.1,0,0.2,0.1,0.2c0.1,0.1,0.2,0.1,0.5,0.1v0.3h-4v-0.3c0.2,0,0.3,0,0.4-0.1c0.1,0,0.1-0.1,0.1-0.2
			c0,0,0-0.1-0.1-0.2c0-0.1-0.1-0.2-0.3-0.3c-0.1-0.2-0.4-0.4-0.6-0.7c-0.3-0.3-0.6-0.7-1.1-1.2c-0.5-0.5-1-1.1-1.7-1.8
			c-0.7-0.7-1.5-1.6-2.4-2.7V37c0,0.1,0,0.2,0.1,0.2c0.1,0.1,0.2,0.1,0.5,0.1v0.3h-4v-0.3c0.3,0,0.4-0.1,0.5-0.1
			c0.1-0.1,0.1-0.1,0.1-0.2V27.1z"/>
		<path class="st0" d="M143.2,37.4c0.1,0,0.2,0,0.3,0c0.1,0,0.1-0.1,0.1-0.2c0,0-0.1-0.2-0.2-0.4c-0.1-0.2-0.3-0.5-0.5-0.8
			c-0.2-0.3-0.4-0.6-0.7-1c-0.2-0.4-0.5-0.7-0.7-1c-0.2-0.3-0.4-0.6-0.6-0.8c-0.2-0.2-0.3-0.4-0.3-0.5l-2.1,1.9V37
			c0,0.1,0,0.2,0.1,0.2c0.1,0.1,0.2,0.1,0.5,0.1v0.3h-4.4v-0.3c0.3,0,0.4-0.1,0.5-0.1c0.1-0.1,0.1-0.1,0.1-0.2v-9.9
			c0-0.1,0-0.2-0.1-0.2s-0.2-0.1-0.5-0.1v-0.3h4.4v0.3c-0.3,0-0.4,0.1-0.5,0.1s-0.1,0.1-0.1,0.2V31h0.1c0.4-0.4,0.9-0.8,1.4-1.3
			c0.5-0.4,0.9-0.8,1.3-1.2c0.4-0.4,0.8-0.7,1-1c0.3-0.3,0.4-0.4,0.4-0.5c0-0.1,0-0.2-0.1-0.2c-0.1,0-0.2,0-0.3-0.1v-0.3h5.4v0.3
			c-0.1,0-0.3,0-0.4,0.1c-0.1,0-0.2,0.1-0.3,0.1c-0.1,0.1-0.2,0.1-0.3,0.2c-0.1,0.1-0.2,0.2-0.3,0.3l-3.7,3.2l4.3,6.5
			c0.1,0.2,0.2,0.3,0.3,0.3c0.1,0,0.2,0,0.4,0v0.3h-4.9V37.4z"/>
		<path class="st0" d="M153.7,37.4c0.3,0,0.4-0.1,0.5-0.1c0.1-0.1,0.1-0.1,0.1-0.2v-9.9c0-0.1,0-0.2-0.1-0.2s-0.2-0.1-0.5-0.1v-0.3
			h4.4v0.3c-0.3,0-0.4,0.1-0.5,0.1s-0.1,0.1-0.1,0.2V37c0,0.1,0,0.2,0.1,0.2c0.1,0.1,0.2,0.1,0.5,0.1v0.3h-4.4V37.4z"/>
		<path class="st0" d="M174.3,30.5c0,0,0-0.1,0-0.1c0,0,0-0.1,0-0.2c0-0.1-0.1-0.2-0.3-0.3c-0.2-0.1-0.4-0.2-0.8-0.3
			c-0.3-0.1-0.7-0.2-1.1-0.2s-0.8-0.1-1.3-0.1c-0.4,0-0.9,0-1.3,0.1c-0.5,0.1-0.9,0.3-1.3,0.5c-0.4,0.2-0.7,0.5-1,0.9
			c-0.2,0.4-0.4,0.8-0.4,1.4c0,0.5,0.1,1,0.4,1.4c0.2,0.4,0.6,0.7,1,0.9c0.4,0.2,0.8,0.4,1.3,0.5c0.5,0.1,0.9,0.1,1.3,0.1
			c0.2,0,0.5,0,0.9-0.1c0.4-0.1,0.8-0.2,1.2-0.3c0.4-0.1,0.7-0.2,1.1-0.4c0.3-0.1,0.5-0.3,0.5-0.4c0-0.1,0-0.1,0-0.2
			c0,0-0.1-0.1-0.1-0.1l0.2-0.1l2.2,3.3l-0.3,0.1c0-0.1-0.1-0.1-0.1-0.1c0,0-0.1,0-0.2,0c-0.1,0-0.3,0.1-0.6,0.2
			c-0.3,0.1-0.7,0.2-1.2,0.4c-0.5,0.1-1,0.3-1.7,0.4c-0.6,0.1-1.4,0.2-2.1,0.2c-0.8,0-1.7-0.1-2.5-0.3c-0.8-0.2-1.6-0.6-2.3-1
			c-0.7-0.5-1.2-1.1-1.6-1.8c-0.4-0.7-0.6-1.5-0.6-2.5c0-0.9,0.2-1.8,0.6-2.5c0.4-0.7,0.9-1.3,1.6-1.8c0.7-0.5,1.4-0.8,2.3-1.1
			c0.8-0.2,1.7-0.4,2.5-0.4s1.6,0,2.2,0.1c0.6,0.1,1.1,0.2,1.6,0.3c0.4,0.1,0.7,0.2,1,0.3s0.4,0.1,0.5,0.1c0.1,0,0.2-0.1,0.3-0.2
			l0.2,0.1l-1.9,3.5L174.3,30.5z"/>
		<path class="st0" d="M194.6,37c0,0.1,0,0.2,0.1,0.2c0.1,0.1,0.2,0.1,0.5,0.1v0.3h-4.4v-0.3c0.3,0,0.4-0.1,0.5-0.1
			c0.1-0.1,0.1-0.1,0.1-0.2v-3.9h-5.5V37c0,0.1,0,0.2,0.1,0.2c0.1,0.1,0.2,0.1,0.5,0.1v0.3h-4.4v-0.3c0.3,0,0.4-0.1,0.5-0.1
			c0.1-0.1,0.1-0.1,0.1-0.2v-9.9c0-0.1,0-0.2-0.1-0.2s-0.2-0.1-0.5-0.1v-0.3h4.4v0.3c-0.3,0-0.4,0.1-0.5,0.1s-0.1,0.1-0.1,0.2v3.4
			h5.5v-3.4c0-0.1,0-0.2-0.1-0.2s-0.2-0.1-0.5-0.1v-0.3h4.4v0.3c-0.3,0-0.4,0.1-0.5,0.1s-0.1,0.1-0.1,0.2V37z"/>
		<path class="st0" d="M201.6,37.4c0.3,0,0.4-0.1,0.5-0.1c0.1-0.1,0.1-0.1,0.1-0.2v-9.9c0-0.1,0-0.2-0.1-0.2s-0.2-0.1-0.5-0.1v-0.3
			h4.4v0.3c-0.3,0-0.4,0.1-0.5,0.1s-0.1,0.1-0.1,0.2V37c0,0.1,0,0.2,0.1,0.2c0.1,0.1,0.2,0.1,0.5,0.1v0.3h-4.4V37.4z"/>
	</g>
	<g>
		<path class="st0" d="M124.9,45.1h1.9c0.5,0,0.9,0.2,1.2,0.4c0.2,0.2,0.3,0.5,0.3,0.9v0c0,0.7-0.4,1.1-1,1.3l1.1,1.6h-0.9l-1-1.5
			h-0.9v1.5h-0.7V45.1z M126.7,47.1c0.5,0,0.9-0.3,0.9-0.7v0c0-0.4-0.3-0.7-0.9-0.7h-1.1v1.4H126.7z"/>
		<path class="st0" d="M130.9,47.2L130.9,47.2c0-1.2,0.9-2.2,2.2-2.2c1.3,0,2.2,1,2.2,2.2v0c0,1.2-0.9,2.2-2.2,2.2
			C131.8,49.3,130.9,48.3,130.9,47.2z M134.5,47.2L134.5,47.2c0-0.8-0.6-1.5-1.4-1.5c-0.8,0-1.4,0.7-1.4,1.5v0
			c0,0.8,0.6,1.5,1.4,1.5C133.9,48.6,134.5,48,134.5,47.2z"/>
		<path class="st0" d="M138.1,45.1h1.9c0.5,0,0.9,0.1,1.1,0.4c0.2,0.2,0.3,0.4,0.3,0.7v0c0,0.5-0.3,0.8-0.6,0.9
			c0.5,0.2,0.8,0.4,0.8,1v0c0,0.7-0.6,1.1-1.6,1.1h-1.9V45.1z M139.9,46.8c0.5,0,0.8-0.2,0.8-0.6v0c0-0.3-0.3-0.5-0.7-0.5h-1.1v1.1
			H139.9z M140.1,48.6c0.5,0,0.8-0.2,0.8-0.6v0c0-0.4-0.3-0.6-0.9-0.6h-1.2v1.1H140.1z"/>
		<path class="st0" d="M146,45h0.7l1.8,4.2h-0.8l-0.4-1h-2l-0.4,1h-0.8L146,45z M147,47.6l-0.7-1.7l-0.7,1.7H147z"/>
		<path class="st0" d="M151.9,45.7h-1.3v-0.7h3.4v0.7h-1.3v3.5h-0.7V45.7z"/>
		<path class="st0" d="M157.9,45h0.7l1.8,4.2h-0.8l-0.4-1h-2l-0.4,1h-0.8L157.9,45z M159,47.6l-0.7-1.7l-0.7,1.7H159z"/>
		<path class="st0" d="M166.9,45.1h0.7v4.2h-0.7V45.1z"/>
		<path class="st0" d="M170.9,48.7l2.5-3H171v-0.7h3.4v0.5l-2.5,3h2.5v0.7h-3.4V48.7z"/>
		<path class="st0" d="M178.7,45h0.7l1.8,4.2h-0.8l-0.4-1h-2l-0.4,1h-0.8L178.7,45z M179.7,47.6l-0.7-1.7l-0.7,1.7H179.7z"/>
		<path class="st0" d="M183.8,45.1h0.7v2.1l2-2.1h0.9l-1.7,1.8l1.8,2.4h-0.9l-1.4-1.9l-0.7,0.7v1.2h-0.7V45.1z"/>
		<path class="st0" d="M191.6,45h0.7l1.8,4.2h-0.8l-0.4-1h-2l-0.4,1h-0.8L191.6,45z M192.6,47.6l-0.7-1.7l-0.7,1.7H192.6z"/>
		<path class="st0" d="M197.2,47.6l-1.7-2.5h0.9l1.2,1.9l1.2-1.9h0.8l-1.7,2.5v1.7h-0.7V47.6z"/>
		<path class="st0" d="M203.1,45h0.7l1.8,4.2h-0.8l-0.4-1h-2l-0.4,1h-0.8L203.1,45z M204.2,47.6l-0.7-1.7l-0.7,1.7H204.2z"/>
	</g>
</g>
</svg>
